<svg id="Capa_1" data-name="Capa 1" xmlns="http://www.w3.org/2000/svg" viewBox="0 0 24 24"><title>02 beach</title><path d="M20,23.82a3.64,3.64,0,0,1-2.75-1.31c-.48-.48-.71-.69-1.26-.69s-.78.21-1.26.69a3.52,3.52,0,0,1-5.48,0c-.48-.48-.71-.69-1.26-.69s-.77.21-1.25.69A3.61,3.61,0,0,1,4,23.82a3.61,3.61,0,0,1-2.74-1.31C.78,22,.54,21.82,0,21.82v-2.1A3.61,3.61,0,0,1,2.74,21c.48.48.71.69,1.26.69s.78-.21,1.26-.69A3.59,3.59,0,0,1,8,19.72,3.6,3.6,0,0,1,10.73,21c.48.48.72.69,1.26.69s.78-.21,1.26-.69a3.52,3.52,0,0,1,5.48,0c.48.48.72.69,1.27.69s.78-.21,1.26-.69A3.61,3.61,0,0,1,24,19.72v2.1c-.55,0-.78.21-1.26.69A3.61,3.61,0,0,1,20,23.82Z"/><path d="M6.6,9.43h0c-.06-.26-1.15-4.9,2.52-7.61a8.35,8.35,0,0,0-6.6,8.48l4.09-.85Z"/><path d="M14.56,7.81h0L18.64,7A8.35,8.35,0,0,0,9.22,1.8C13.8,2.86,14.56,7.81,14.56,7.81Z"/><path d="M22,14.94H14l.31,1.52-1.09.22L11.55,8.6h0l0-.17,1.72-.35c0-.08-.6-4.27-4.05-6.28H9.14C6.76,5,7.9,9.11,7.91,9.18h0l1.66-.34,1.29,6.09H2L0,18.1H24Z"/></svg>