<svg id="Capa_1" data-name="Capa 1" xmlns="http://www.w3.org/2000/svg" viewBox="0 0 24 24"><title>07 cache</title><g id="_7" data-name=" 7"><g id="g3245"><path d="M.71,10.59v7.3a.42.42,0,0,0,.41.41H22.88a.41.41,0,0,0,.4-.41v-7.3ZM6.6,15.43a1.75,1.75,0,0,1-.22.59,1,1,0,0,1-.44.39,1.62,1.62,0,0,1-.75.14,1.78,1.78,0,0,1-.83-.16,1.11,1.11,0,0,1-.47-.49,2.17,2.17,0,0,1-.22-.75,10.37,10.37,0,0,1,0-1.93,2.22,2.22,0,0,1,.22-.76A1.11,1.11,0,0,1,4.36,12a1.65,1.65,0,0,1,.83-.18A1.63,1.63,0,0,1,6,12a1.1,1.1,0,0,1,.42.41,1.28,1.28,0,0,1,.18.54,3.08,3.08,0,0,1,0,.53H5.69a1.66,1.66,0,0,0-.12-.73.46.46,0,0,0-.44-.23.42.42,0,0,0-.28.1.58.58,0,0,0-.18.3,2.53,2.53,0,0,0-.09.55c0,.22,0,.5,0,.83a7.87,7.87,0,0,0,0,.84,1.72,1.72,0,0,0,.11.5.45.45,0,0,0,.19.24.58.58,0,0,0,.26.06.57.57,0,0,0,.22,0,.35.35,0,0,0,.19-.17,1.12,1.12,0,0,0,.12-.35,4.07,4.07,0,0,0,.05-.61h.92A3.35,3.35,0,0,1,6.6,15.43Zm2.88,1.05-.21-1H8l-.21,1h-1l1.22-4.6H9.23l1.22,4.6Zm4.16-1.05a1.55,1.55,0,0,1-.21.59,1.07,1.07,0,0,1-.45.39,1.71,1.71,0,0,1-.74.14,1.75,1.75,0,0,1-.83-.16,1.14,1.14,0,0,1-.48-.49,2.15,2.15,0,0,1-.21-.75,10.37,10.37,0,0,1,0-1.93,2.15,2.15,0,0,1,.21-.76,1.22,1.22,0,0,1,.48-.5,1.74,1.74,0,0,1,.83-.17A1.56,1.56,0,0,1,13,12a1,1,0,0,1,.43.41,1.24,1.24,0,0,1,.18.53,4.89,4.89,0,0,1,0,.54h-.92a1.66,1.66,0,0,0-.12-.73h0a.46.46,0,0,0-.44-.23.47.47,0,0,0-.28.09.65.65,0,0,0-.18.31,2.53,2.53,0,0,0-.09.55c0,.22,0,.5,0,.83a7.87,7.87,0,0,0,0,.84,1.72,1.72,0,0,0,.11.5.48.48,0,0,0,.18.24.63.63,0,0,0,.49,0,.39.39,0,0,0,.19-.17,1.12,1.12,0,0,0,.12-.35,3.13,3.13,0,0,0,0-.61h.93a4.17,4.17,0,0,1,0,.71Zm3.53,1.05h-.92v-2H15.16v2h-.93v-4.6h.93v1.76h1.08V11.88h.93Zm3.28,0H17.82v-4.6h2.57v.76H18.75v1.08h1.54v.76H18.75v1.24h1.71Z"/><polygon points="8.65 12.68 8.2 14.75 9.11 14.75 8.66 12.68 8.65 12.68"/><path d="M23.59,5.7H.4a.42.42,0,0,0-.4.41V9.29a.42.42,0,0,0,.4.41H23.59A.41.41,0,0,0,24,9.29h0V6.11a.42.42,0,0,0-.41-.41Z"/></g></g></svg>