<svg id="Capa_1" data-name="Capa 1" xmlns="http://www.w3.org/2000/svg" viewBox="0 0 24 24"><title>40 waterfall</title><path d="M21.56,19.3c-.39.48-.52.61-.8.61s-.42-.13-.81-.61a3,3,0,0,0-2.44-1.39,3,3,0,0,0-2.43,1.39c-.4.48-.53.61-.81.61s-.41-.13-.8-.61A3,3,0,0,0,11,17.91,3,3,0,0,0,8.6,19.3c-.39.48-.53.61-.8.61s-.41-.12-.81-.59c-.13-.16-.26-.33-.36-.43a4.89,4.89,0,0,1-1.06-2.15l-.05-.27L4,5.84a5.4,5.4,0,0,0-.59-1.75h.7c1.4,0,1.79,1.46,1.89,2.06L7.55,17H9.66L8.08,5.83a5.76,5.76,0,0,0-.59-1.74h.63c1.42,0,1.8,1.45,1.89,2.06L11.55,17h2.11L12.08,5.84a5.31,5.31,0,0,0-.58-1.75h.57A2.13,2.13,0,0,1,14,6.15L15.49,17H17.6L16,5.85A4.14,4.14,0,0,0,12.12,2V2H0L0,4.09h0A2.13,2.13,0,0,1,1.94,6.15L3.45,16.81h0l0,.14v0h0l0,.17A6.88,6.88,0,0,0,5.07,20.3c.11.11.2.23.3.35A3,3,0,0,0,7.8,22a3,3,0,0,0,2.43-1.39c.39-.49.53-.61.8-.61s.41.12.81.61A3,3,0,0,0,14.27,22a3,3,0,0,0,2.44-1.39c.39-.49.52-.61.8-.61s.41.12.81.61a2.83,2.83,0,0,0,4.87,0c.4-.49.53-.61.81-.61v-2.1A3,3,0,0,0,21.56,19.3Z"/></svg>