<svg id="Capa_1" data-name="Capa 1" xmlns="http://www.w3.org/2000/svg" viewBox="0 0 24 24"><title>20 mountain pass</title><path d="M23.17,21.67h0L17.63,9.32a1,1,0,0,0-1.91,0h0a4,4,0,0,1-7.39,0h0a1,1,0,0,0-1.91,0L3.57,15.63h0L0,23.51H24ZM16,15.62l-2,.88-2-.89-2,.88-1.93-.88L5.7,16.5l1.82-4A8,8,0,0,0,12,13.86a8,8,0,0,0,4.5-1.41l1.84,4.08Z"/><path d="M15.36,3.67a3.35,3.35,0,0,0-6.69.17,3.34,3.34,0,0,0,.59,1.9l2.51,3.68a.31.31,0,0,0,.5,0l2.52-3.7h0A3.36,3.36,0,0,0,15.36,3.67ZM12,4.87A1.08,1.08,0,1,1,13.1,3.79,1.08,1.08,0,0,1,12,4.87Z"/></svg>