<svg id="Capa_1" data-name="Capa 1" xmlns="http://www.w3.org/2000/svg" viewBox="0 0 24 24"><title>11 door</title><circle cx="7.11" cy="2.72" r="2.28"/><polygon points="16 2.02 16 21.95 24 24 24 0 16 2.02"/><polygon points="4.04 14.48 4.01 14.8 4.05 14.81 3.37 18.63 0.62 22.74 2.29 23.85 5.26 19.4 5.7 16.94 4.04 14.48"/><path d="M9.18,9.7a6.4,6.4,0,0,0,5.26,2.75v-2a4.45,4.45,0,0,1-4-2.48A3.3,3.3,0,0,0,7.53,6H7a9.92,9.92,0,0,0-4.19.92l-2,.91L.05,11.91l2,.36.57-3,2-.89L4.34,11a5.55,5.55,0,0,0,.94,3.6l6,8.8-.05,0,.22.32,1.66-1.12L8.59,16h0Z"/></svg>