<svg id="Capa_1" data-name="Capa 1" xmlns="http://www.w3.org/2000/svg" viewBox="0 0 24 24"><title>12 ferry</title><path d="M7.61,8.69l.29-2.1h8.2l.3,2.13,2.44.48L18,3.59H15V1.36a.78.78,0,0,0-.78-.77H9.77A.78.78,0,0,0,9,1.36V3.59H6L5.17,9.15Z"/><path d="M5.26,18.54A3.59,3.59,0,0,1,8,17.23a3.6,3.6,0,0,1,2.74,1.31,2,2,0,0,0,1,.66h.59a1.91,1.91,0,0,0,1-.66,3.52,3.52,0,0,1,5.48,0c.48.47.72.68,1.24.69l3.28-8.13L12.74,9a3.69,3.69,0,0,0-1.48,0L5,10.2H5L4,10.4.76,11l3.31,8.21C4.56,19.2,4.8,19,5.26,18.54Z"/><path d="M20,23.41a3.61,3.61,0,0,1-2.75-1.31c-.48-.48-.71-.69-1.26-.69s-.78.21-1.26.69a3.52,3.52,0,0,1-5.48,0c-.48-.48-.71-.69-1.26-.69s-.77.21-1.25.69A3.58,3.58,0,0,1,4,23.41,3.58,3.58,0,0,1,1.26,22.1c-.48-.48-.72-.69-1.26-.69V19.32a3.58,3.58,0,0,1,2.74,1.31c.48.48.71.69,1.26.69s.78-.21,1.26-.69a3.51,3.51,0,0,1,5.47,0c.48.48.72.69,1.26.69s.78-.21,1.26-.69a3.53,3.53,0,0,1,5.48,0c.48.49.72.7,1.27.7s.78-.21,1.26-.7A3.61,3.61,0,0,1,24,19.32v2.09c-.55,0-.78.21-1.26.69A3.58,3.58,0,0,1,20,23.41Z"/></svg>