<svg id="Capa_1" data-name="Capa 1" xmlns="http://www.w3.org/2000/svg" viewBox="0 0 24 24"><title>36 train stop</title><path d="M18.05,18.5H5.93a.91.91,0,0,0-.81.51L3.26,22.75a.52.52,0,0,0,.46.75H20.28a.52.52,0,0,0,.46-.75L18.87,19A.91.91,0,0,0,18.05,18.5Zm-1.17,1,.5,1H6.61l.49-1Zm-11.27,3,.5-1H17.88l.5,1Z"/><path d="M20,8.5,17.68,2.33A2.81,2.81,0,0,0,15,.5H9A2.82,2.82,0,0,0,6.31,2.33L4,8.5v5.86a2.12,2.12,0,0,0,.94,1.77l1.5,1a2.19,2.19,0,0,0,1.19.36h8.74a2.16,2.16,0,0,0,1.18-.36l1.5-1A2.13,2.13,0,0,0,20,14.36Zm-12.82,7a1.19,1.19,0,1,1,1.18-1.18A1.18,1.18,0,0,1,7.18,15.49Zm-1-7,2.25-6h7.22l2.25,6Zm10.67,7A1.19,1.19,0,1,1,18,14.31,1.18,1.18,0,0,1,16.81,15.49Z"/></svg>