<svg id="Capa_1" data-name="Capa 1" xmlns="http://www.w3.org/2000/svg" viewBox="0 0 24 24"><title>42 sport installation</title><polygon points="24 17 23 17 23 12.5 20 12.5 20 14.5 18 14.5 18 17 6 17 6 14.5 4.01 14.5 4.01 12.5 1 12.5 1 17 0 17 0 19 1 19 1 23.5 4.01 23.5 4.01 21.5 6 21.5 6 19 18 19 18 21.5 20 21.5 20 23.5 23 23.5 23 19 24 19 24 17"/><path d="M8.09,6.46,10.22,4.8l2.14,2.65,2.19-2.17L15.9,6.46h2.85a4.15,4.15,0,0,0,.37-1.72A4.23,4.23,0,0,0,14.89.5,4.19,4.19,0,0,0,12,1.68,4.23,4.23,0,0,0,5.22,6.46Z"/><path d="M18.09,7.46H15.53l-.94-.82-2.31,2.3L10.06,6.2,8.44,7.46H5.85c.09.11.18.23.28.33h0L12,13.64,17.82,7.8h0C17.91,7.69,18,7.57,18.09,7.46Z"/></svg>