<svg id="Capa_1" data-name="Capa 1" xmlns="http://www.w3.org/2000/svg" viewBox="0 0 24 24"><title>04 lake</title><path d="M21.94,8.67c-.71-1-1.09-2.51-2.28-3.21s-2.61-.25-3.93-.57S13.35,3.52,12,3.52,9.47,4.59,8.27,4.89s-2.88,0-3.93.57S2.77,7.69,2.06,8.67,0,10.7,0,12s1.27,2.25,2.06,3.33,1.09,2.51,2.28,3.21,2.61.25,3.93.57,2.38,1.37,3.73,1.37,2.53-1.07,3.73-1.37,2.88,0,3.93-.57,1.57-2.23,2.28-3.21S24,13.3,24,12,22.73,9.75,21.94,8.67ZM19,15.44a3.58,3.58,0,0,1-2.15-.68,2.25,2.25,0,0,0-2.7,0,3.75,3.75,0,0,1-4.31,0,2.12,2.12,0,0,0-1.35-.45,2.1,2.1,0,0,0-1.35.45A3.64,3.64,0,0,1,5,15.44v-1.5a2.14,2.14,0,0,0,1.35-.45,3.59,3.59,0,0,1,2.16-.68,3.64,3.64,0,0,1,2.16.68,2.24,2.24,0,0,0,2.69,0,3.77,3.77,0,0,1,4.32,0,2.09,2.09,0,0,0,1.34.45Zm0-4.25a3.58,3.58,0,0,1-2.15-.68,2.25,2.25,0,0,0-2.7,0,3.75,3.75,0,0,1-4.31,0,2.12,2.12,0,0,0-1.35-.45,2.1,2.1,0,0,0-1.35.45A3.64,3.64,0,0,1,5,11.19V9.69a2.14,2.14,0,0,0,1.35-.45A3.59,3.59,0,0,1,8.5,8.56a3.64,3.64,0,0,1,2.16.68,2.24,2.24,0,0,0,2.69,0,3.77,3.77,0,0,1,4.32,0A2.09,2.09,0,0,0,19,9.69Z"/></svg>