<svg id="Capa_1" data-name="Capa 1" xmlns="http://www.w3.org/2000/svg" viewBox="0 0 24 24"><title>27 provisioning</title><rect x="3" y="1.5" width="4" height="2"/><path d="M8.7,4.5H1.3A1.32,1.32,0,0,0,0,5.8v8.7H5v1H0v2H5v1H0v4H10V5.8A1.32,1.32,0,0,0,8.7,4.5Z"/><path d="M23.9,14.6A4.19,4.19,0,0,0,19.4,11a1.85,1.85,0,0,0-.7.2l-.5.3V9.8a.46.46,0,0,1,.5-.4H20v-1H18.6a1.52,1.52,0,0,0-1.5,1.4v1.6l-.5-.3a1.85,1.85,0,0,0-.7-.2,4.11,4.11,0,0,0-4.5,3.6,6.66,6.66,0,0,0,.4,3.1l.5,1.1a8,8,0,0,0,2.8,3.5,2,2,0,0,0,1.5.3l.8-.4a.64.64,0,0,1,.6,0l.8.4a2.06,2.06,0,0,0,1.5-.3,7.19,7.19,0,0,0,2.8-3.4l.4-1.1a5.58,5.58,0,0,0,.4-3.1"/></svg>