<svg id="Capa_1" data-name="Capa 1" xmlns="http://www.w3.org/2000/svg" viewBox="0 0 24 24"><title>17 subway</title><path d="M20.2,21.36a12,12,0,1,0-16.4,0L3.18,22.6a.53.53,0,0,0,.47.76h16.7a.53.53,0,0,0,.47-.76Zm-1.82,1H5.56l.35-.71H6l.14-.28H17.88l.14.28h.06l.36.71h-.06Zm-11.77-2,.49-1h9.78l.5,1Zm11.83-5.87A1.65,1.65,0,0,1,18,15.65l-1.17,1.22a1.7,1.7,0,0,1-1.21.52H8.34a1.7,1.7,0,0,1-1.22-.52L6,15.69a1.7,1.7,0,0,1-.45-1.15V10.11L7.33,4.48A1.62,1.62,0,0,1,8.87,3.37h6.27a1.62,1.62,0,0,1,1.54,1.12l1.76,5.62Z"/><path d="M15.24,14.44a1.08,1.08,0,1,0,1.07-1.08A1.07,1.07,0,0,0,15.24,14.44Z"/><circle cx="7.69" cy="14.44" r="1.07"/><path d="M15.57,4.94H8.3L7.25,10.11h9.39ZM13.31,9.51V7.41l-1,1.71h-.49l-1-1.66V9.51h-1v-4h.92l1.39,2.28,1.36-2.28h.92v4Z"/></svg>