<svg id="Capa_1" data-name="Capa 1" xmlns="http://www.w3.org/2000/svg" viewBox="0 0 24 24"><title>24 parking</title><path d="M21,1H3A2,2,0,0,0,1,3V21a2,2,0,0,0,2,2H21a2,2,0,0,0,2-2V3A2,2,0,0,0,21,1ZM18.44,12a4.5,4.5,0,0,1-1.32,1.69,5.75,5.75,0,0,1-1.69.9,7.3,7.3,0,0,1-1.86.36c-.63,0-1.23.07-1.78.08H9.07v5.35H5V4h6.57q1,0,1.95,0a11,11,0,0,1,1.78.22,5.19,5.19,0,0,1,1.54.62,4,4,0,0,1,1.23,1.19,5.24,5.24,0,0,1,.7,1.61A7.31,7.31,0,0,1,19,9.41,5.72,5.72,0,0,1,18.44,12Z"/><path d="M13.75,7.31A3,3,0,0,0,12.68,7l-1,0H9.07v5h2.47c.38,0,.78,0,1.18-.05a2.75,2.75,0,0,0,1.09-.29,1.88,1.88,0,0,0,.8-.76,2.86,2.86,0,0,0,.32-1.47A2.42,2.42,0,0,0,14.59,8,2,2,0,0,0,13.75,7.31Z"/></svg>