<svg id="Capa_1" data-name="Capa 1" xmlns="http://www.w3.org/2000/svg" viewBox="0 0 24 24"><title>Payment</title><polygon points="-0.08 18.63 1.19 17.36 2.64 6.62 8.39 0.03 13.98 0.03 13.98 2.84 9.67 2.84 8.16 6.39 8.16 13.81 9.22 13.81 11.94 11.96 15.64 7.83 17.98 9.93 12.09 18.03 4.99 24 -0.08 18.63"/><rect x="21.09" width="2.82" height="11.86" rx="1.41"/><path d="M16.21,8a3.17,3.17,0,1,1,3.16-3.17A3.17,3.17,0,0,1,16.21,8Zm-1-1h2V2.67h-2Z"/><path d="M14.71,2.64V7a2.65,2.65,0,0,1,0-4.4m3,0a2.67,2.67,0,0,1,0,4.4V2.64m-1.5-1.46a3.67,3.67,0,1,0,3.66,3.66,3.66,3.66,0,0,0-3.66-3.66Zm-.5,5.34V3.17h1V6.52Z"/></svg>