<svg id="Capa_1" data-name="Capa 1" xmlns="http://www.w3.org/2000/svg" viewBox="0 0 24 24"><title>30 river</title><path d="M4.64,16.64a3.58,3.58,0,0,0,1.06-.17,3.52,3.52,0,0,0,2.09-1.82c.29-.48.43-.72.94-.88A1.5,1.5,0,0,1,10,14a3.53,3.53,0,0,0,2.76.27,3.49,3.49,0,0,0,2.09-1.82c.29-.48.43-.72.94-.88a1.5,1.5,0,0,1,1.27.18,3.52,3.52,0,0,0,4.86-1.55L22,10V7.36a3.58,3.58,0,0,0-1.88,1.73c-.28.48-.43.72-.93.88a1.52,1.52,0,0,1-1.28-.18,3.54,3.54,0,0,0-4.86,1.55c-.28.48-.43.72-.93.89A1.5,1.5,0,0,1,10.85,12,3.54,3.54,0,0,0,6,13.59c-.28.48-.42.72-.93.88a1.5,1.5,0,0,1-1.27-.18A3.83,3.83,0,0,0,2,13.86V16a1.84,1.84,0,0,1,.94.25A4.1,4.1,0,0,0,4.64,16.64Z"/><path d="M4.64,11.38a3.29,3.29,0,0,0,1.06-.17A3.51,3.51,0,0,0,7.79,9.4c.29-.49.43-.73.94-.89A1.54,1.54,0,0,1,10,8.69a3.51,3.51,0,0,0,4.85-1.54c.29-.48.43-.73.94-.89a1.5,1.5,0,0,1,1.27.19,3.54,3.54,0,0,0,2.76.26,3.5,3.5,0,0,0,2.1-1.81L22,4.77V2.1a3.62,3.62,0,0,0-1.88,1.73c-.28.48-.43.73-.93.89a1.53,1.53,0,0,1-1.28-.19,3.54,3.54,0,0,0-4.86,1.55c-.28.49-.43.73-.93.89a1.53,1.53,0,0,1-1.27-.18,3.49,3.49,0,0,0-2.76-.27A3.57,3.57,0,0,0,6,8.33c-.28.49-.42.73-.93.89A1.51,1.51,0,0,1,3.79,9,4,4,0,0,0,2,8.6v2.09a1.84,1.84,0,0,1,.94.25A4,4,0,0,0,4.64,11.38Z"/><path d="M22,12.62a3.6,3.6,0,0,0-1.88,1.72c-.28.49-.43.73-.93.89a1.52,1.52,0,0,1-1.28-.18,3.54,3.54,0,0,0-2.76-.27,3.58,3.58,0,0,0-2.1,1.82c-.28.48-.43.72-.93.88a1.46,1.46,0,0,1-1.27-.18A3.54,3.54,0,0,0,8.09,17,3.58,3.58,0,0,0,6,18.85c-.28.48-.42.72-.93.88a1.5,1.5,0,0,1-1.27-.18A3.83,3.83,0,0,0,2,19.11V21.2a1.86,1.86,0,0,1,.94.26,4.1,4.1,0,0,0,1.7.44,3.58,3.58,0,0,0,1.06-.17,3.52,3.52,0,0,0,2.09-1.82c.29-.48.43-.72.94-.88a1.5,1.5,0,0,1,1.27.18,3.5,3.5,0,0,0,4.85-1.55c.29-.48.43-.72.94-.88a1.46,1.46,0,0,1,1.27.18,3.54,3.54,0,0,0,4.86-1.55l.08-.13Z"/></svg>