<svg id="Capa_1" data-name="Capa 1" xmlns="http://www.w3.org/2000/svg" viewBox="0 0 24 24"><title>34 spa</title><path d="M12,12.84a2.49,2.49,0,1,0-2.48-2.48A2.48,2.48,0,0,0,12,12.84Z"/><path d="M17.46,21.62c-.57.12-1.16.22-1.76.3h1.76Z"/><path d="M8,19.85V16.07H9V20a26.57,26.57,0,0,0,3,.18A26.57,26.57,0,0,0,15,20V16.07h1v3.78c.5-.08,1-.17,1.46-.28V16a2.16,2.16,0,0,0-2.16-2.16H8.66A2.16,2.16,0,0,0,6.5,16v3.55C7,19.67,7.48,19.77,8,19.85Z"/><path d="M6.5,21.62v.3H8.3C7.69,21.84,7.08,21.74,6.5,21.62Z"/><path d="M19,13.88v1.94c1.9.72,3.08,1.7,3.08,2.6,0,1.76-4.31,3.73-10.08,3.73s-10.08-2-10.08-3.73c0-.9,1.18-1.88,3.08-2.6V13.88C1.87,14.9.08,16.54.08,18.42.08,21.6,5.2,24,12,24s11.92-2.39,11.92-5.57C23.92,16.54,22.13,14.9,19,13.88Z"/><path d="M2,11H0A14.88,14.88,0,0,1,1,5.16,13,13,0,0,0,2,0H4a14.66,14.66,0,0,1-1,5.81A13.16,13.16,0,0,0,2,11Z"/><path d="M7.22,8H5.32a11.1,11.1,0,0,1,.77-4.3A9.24,9.24,0,0,0,6.75,0h1.9a11.1,11.1,0,0,1-.77,4.3A9.28,9.28,0,0,0,7.22,8Z"/><path d="M13.16,4.43h-2a6.67,6.67,0,0,1,.45-2.55A4.68,4.68,0,0,0,12,0h2a6.48,6.48,0,0,1-.46,2.55A4.7,4.7,0,0,0,13.16,4.43Z"/><path d="M22,11H20a14.77,14.77,0,0,1,1.05-5.83A13.18,13.18,0,0,0,22,0h2a14.89,14.89,0,0,1-1,5.82A13,13,0,0,0,22,11Z"/><path d="M17.25,8H15.34a10.94,10.94,0,0,1,.78-4.31A9.3,9.3,0,0,0,16.78,0h1.9a11.21,11.21,0,0,1-.77,4.31A9.3,9.3,0,0,0,17.25,8Z"/></svg>