<svg id="Capa_1" data-name="Capa 1" xmlns="http://www.w3.org/2000/svg" viewBox="0 0 24 24"><title>38 tunnel</title><path d="M12,3A10.77,10.77,0,0,0,1,13.55V21H3V16.49H5V21H19V16.49h2V21h2V13.55A10.78,10.78,0,0,0,12,3ZM18.5,7.7,16.89,9.32A7,7,0,0,0,13,7.39V5.06A9.14,9.14,0,0,1,18.5,7.7ZM11,5.06V7.4A7,7,0,0,0,7.22,9.21L5.59,7.57A9.2,9.2,0,0,1,11,5.06ZM3,14.49v-.94A8.24,8.24,0,0,1,4.32,9.13L6,10.78a6.94,6.94,0,0,0-1,3.53v.18Zm16,0v-.18a7,7,0,0,0-.87-3.39l1.63-1.63A8.19,8.19,0,0,1,21,13.55v.94Z"/></svg>