<svg id="Capa_1" data-name="Capa 1" xmlns="http://www.w3.org/2000/svg" viewBox="0 0 24 24"><title>43 wildlife</title><path d="M9,8.48H9A2.13,2.13,0,0,1,6.91,5.85l.85-3.48a1.15,1.15,0,0,1,1.12-.88h0A1.13,1.13,0,0,1,10,2.31l1,3.43A2.13,2.13,0,0,1,9,8.48Z"/><path d="M3.5,12.78h0a2.13,2.13,0,0,1-2.07-2.64l.85-3.48a1.15,1.15,0,0,1,1.11-.88h0a1.14,1.14,0,0,1,1.1.82l1,3.43A2.13,2.13,0,0,1,3.5,12.78Z"/><path d="M20.87,12.78h0a2.13,2.13,0,0,1-2.07-2.64l.85-3.48a1.15,1.15,0,0,1,1.12-.88h0a1.16,1.16,0,0,1,1.1.82l1,3.43A2.13,2.13,0,0,1,20.87,12.78Z"/><path d="M15,8.48h0A2.13,2.13,0,0,1,13,5.85l.86-3.48a1.13,1.13,0,0,1,1.11-.88h0a1.15,1.15,0,0,1,1.1.82l1,3.43A2.13,2.13,0,0,1,15,8.48Z"/><path d="M17.46,13.5H16.21a4.22,4.22,0,0,0-8.43,0H6.7A4.64,4.64,0,0,0,2,17.56a4.51,4.51,0,0,0,4.49,5H8.35a4.44,4.44,0,0,0,2.3-.65L12,21l1.35.84a4.44,4.44,0,0,0,2.3.65h1.62A4.64,4.64,0,0,0,22,18.45,4.51,4.51,0,0,0,17.46,13.5Z"/></svg>