<?xml version="1.0" encoding="UTF-8"?>
<svg version="1.1" xmlns="http://www.w3.org/2000/svg" width="512" height="512">
<path d="M0 0 C1.84233719 -0.00956978 1.84233719 -0.00956978 3.72189331 -0.01933289 C5.06866415 -0.02086167 6.41543552 -0.02197557 7.76220703 -0.02270508 C9.13982173 -0.02591771 10.51743608 -0.02928178 11.89505005 -0.03279114 C14.78518464 -0.03878383 17.67528932 -0.04063093 20.56542969 -0.04003906 C24.26660895 -0.03993752 27.96759604 -0.05358122 31.66872978 -0.07081127 C34.51519652 -0.08193789 37.36161692 -0.08395806 40.20810318 -0.08342934 C41.57243639 -0.08460878 42.93677081 -0.0890286 44.30108261 -0.0967617 C46.21111323 -0.10657286 48.12120011 -0.10241638 50.03125 -0.09765625 C51.11775848 -0.09908127 52.20426697 -0.10050629 53.32369995 -0.10197449 C56.173721 0.14777884 57.78280015 0.56336258 60.14501953 2.14526367 C62.74014922 6.22332462 63.75987586 9.32888912 63.14501953 14.14526367 C61.29249783 18.33781278 59.23443018 20.15940911 55.14501953 22.14526367 C52.08544922 22.23071289 52.08544922 22.23071289 48.81689453 22.07495117 C44.68058757 22.31613865 42.82359578 22.48071706 39.83056641 25.41186523 C37.77548937 28.61364598 36.05838788 31.84880213 34.39501953 35.27026367 C33.21457633 37.52383705 32.0322653 39.77643297 30.84814453 42.02807617 C30.29789612 43.10856232 29.74764771 44.18904846 29.1807251 45.30227661 C27.08569417 49.33093983 24.76974961 53.20999263 22.41357422 57.09008789 C21.79474869 58.1150663 21.79474869 58.1150663 21.16342163 59.16075134 C20.15921841 60.82342314 19.1523958 62.48451244 18.14501953 64.14526367 C33.9922027 64.45928436 49.8368081 64.66334254 65.68671131 64.73854351 C73.04747041 64.7759974 80.40466005 64.84864778 87.76391602 65.00585938 C94.18288395 65.14289298 100.5985098 65.21215792 107.0189926 65.20197803 C110.41674656 65.1989083 113.80678686 65.2284296 117.2028904 65.33933067 C131.12007402 66.33222435 131.12007402 66.33222435 143.39953232 61.18057632 C147.48990577 56.05465171 150.09547158 50.34464689 152.14501953 44.14526367 C151.21318848 44.13406494 150.28135742 44.12286621 149.32128906 44.11132812 C146.24183745 44.07020515 143.16336371 44.00905561 140.08447266 43.93774414 C138.71903789 43.90964745 137.3534439 43.8883769 135.98779297 43.87426758 C134.01647915 43.85268385 132.04552322 43.80390908 130.07470703 43.75463867 C128.89118652 43.73369141 127.70766602 43.71274414 126.48828125 43.69116211 C121.93268784 42.94731029 118.52468341 41.0266235 115.77001953 37.27026367 C114.90646416 34.3341754 114.77843744 32.20011441 115.14501953 29.14526367 C117.18495861 25.48744187 118.64921215 23.47580193 122.14501953 21.14526367 C124.51545715 20.87783813 124.51545715 20.87783813 127.34741211 20.85473633 C128.40893997 20.84197662 129.47046783 20.82921692 130.56416321 20.81607056 C132.28448006 20.81273209 132.28448006 20.81273209 134.03955078 20.80932617 C135.80971809 20.79934097 135.80971809 20.79934097 137.61564636 20.78915405 C140.11476074 20.7790206 142.61390221 20.77433725 145.11303711 20.7746582 C148.9320965 20.77029273 152.74999341 20.73399933 156.56884766 20.69604492 C158.99657808 20.6901754 161.42431399 20.68620691 163.85205078 20.68432617 C165.56325859 20.66276962 165.56325859 20.66276962 167.30903625 20.64077759 C173.5399965 20.6765771 177.45373043 20.86987075 182.14501953 25.14526367 C184.21867883 28.48115037 184.37240277 31.13854907 183.76293945 34.98876953 C182.3895425 39.7818218 179.59195813 43.99856711 177.08251953 48.27026367 C176.49776855 49.28910645 175.91301758 50.30794922 175.31054688 51.35766602 C172.77785262 55.74641248 170.20963105 60.10141587 167.46923828 64.36401367 C167.090979 64.95424316 166.71271973 65.54447266 166.32299805 66.15258789 C165.34593139 67.65364138 164.34411397 69.13850468 163.34033203 70.62182617 C161.83768085 73.79408977 162.17659961 74.80555583 163.14501953 78.14526367 C164.24018503 80.28495724 165.417081 82.38359132 166.64501953 84.44995117 C166.99709976 85.04686264 167.34917999 85.64377411 167.71192932 86.2587738 C168.84944742 88.18342349 169.99702288 90.10184927 171.14501953 92.02026367 C171.92418703 93.33395241 172.70275106 94.64799926 173.48071289 95.96240234 C175.36101278 99.13518166 177.24944042 102.3030068 179.14227295 105.46832275 C180.03896331 106.96790079 180.93413456 108.46838695 181.82910156 109.96899414 C184.2547081 114.03571736 186.69030921 118.09604067 189.14501953 122.14526367 C193.59323837 121.31021898 197.88515481 120.11640624 202.23095703 118.86401367 C223.61270045 113.59023245 246.44555035 117.14369 265.37011719 128.06762695 C269.86277959 130.79535898 274.04155772 133.86950869 278.14501953 137.14526367 C278.80630859 137.65444336 279.46759766 138.16362305 280.14892578 138.68823242 C281.53019627 139.78107056 282.8481205 140.95351862 284.14501953 142.14526367 C284.14501953 142.80526367 284.14501953 143.46526367 284.14501953 144.14526367 C284.80501953 144.14526367 285.46501953 144.14526367 286.14501953 144.14526367 C302.87694441 162.47401126 309.25082711 186.23545655 308.31542969 210.61108398 C307.41472978 224.0054465 302.82717864 235.63653745 296.14501953 247.14526367 C295.38511719 248.45430664 295.38511719 248.45430664 294.60986328 249.78979492 C282.32335611 269.33184393 263.17652661 281.45793227 241.14501953 287.14526367 C216.64755811 291.8294796 193.19787334 287.11569443 172.60595703 273.46166992 C170.33638733 271.78956645 168.24111455 270.03024121 166.14501953 268.14526367 C165.26330078 267.35635742 164.38158203 266.56745117 163.47314453 265.75463867 C150.82313218 253.80352203 142.15654595 238.990958 138.56445312 221.89916992 C138.2976474 220.63532471 138.03084167 219.37147949 137.75595093 218.06933594 C137.55434357 217.10439209 137.35273621 216.13944824 137.14501953 215.14526367 C136.33149017 215.13939743 135.51796082 215.13353119 134.67977905 215.12748718 C126.99961544 215.06949752 119.31977392 214.99738522 111.6398983 214.90954876 C107.69191926 214.86488923 103.74404235 214.82562363 99.79589844 214.79882812 C95.98315127 214.77275068 92.17079808 214.73231756 88.35829544 214.68207741 C86.90635721 214.66543857 85.45435087 214.65390573 84.00233078 214.64764977 C81.96272582 214.63797562 79.92412196 214.60988001 77.88476562 214.57763672 C76.14602676 214.56098213 76.14602676 214.56098213 74.37216187 214.54399109 C69.98030153 214.00135772 66.48364298 212.63400757 63.49267578 209.30761719 C63.06857422 208.61595459 62.64447266 207.92429199 62.20751953 207.21166992 C61.71123047 206.4126123 61.21494141 205.61355469 60.70361328 204.7902832 C59.93210938 203.48099854 59.93210938 203.48099854 59.14501953 202.14526367 C58.59974609 201.22729004 58.05447266 200.30931641 57.49267578 199.36352539 C55.68782281 196.28228122 53.91350366 193.18501554 52.14501953 190.08276367 C51.15128996 188.34991164 50.15755044 186.61706516 49.16307068 184.88464355 C48.48595934 183.70506003 47.80917192 182.52529051 47.13270569 181.34533691 C43.81095773 175.5537307 40.4509357 169.78481394 37.08251953 164.02026367 C36.50953125 163.03920654 35.93654297 162.05814941 35.34619141 161.04736328 C34.19061889 159.06914402 33.03485781 157.0910349 31.87890625 155.11303711 C29.5488983 151.12492437 27.22168844 147.13518277 24.89477539 143.14526367 C23.73575599 141.15809605 22.57641771 139.17111438 21.41674805 137.18432617 C18.3698269 131.96373139 15.32808733 126.7402013 12.29345703 121.51245117 C11.66181641 120.42577148 11.03017578 119.3390918 10.37939453 118.21948242 C9.17211772 116.14225614 7.96630272 114.06417931 6.76220703 111.98510742 C4.02029118 107.27082286 1.24346593 102.63423236 -1.85498047 98.14526367 C-2.20689453 98.76868652 -2.55880859 99.39210938 -2.92138672 100.03442383 C-9.53809399 111.75402903 -16.15809594 123.47123838 -22.85498047 135.14526367 C-22.22591797 135.67893555 -21.59685547 136.21260742 -20.94873047 136.76245117 C-3.91144784 151.59309779 7.55668571 171.09891128 9.3659668 193.93383789 C10.36728333 218.97312909 4.99225492 241.45972236 -12.29248047 260.39526367 C-14.12137102 262.33959505 -15.98070171 264.24366306 -17.85498047 266.14526367 C-18.51240234 266.81557617 -19.16982422 267.48588867 -19.84716797 268.17651367 C-28.04564015 275.91756037 -39.1840641 281.68848795 -49.85498047 285.14526367 C-50.70962891 285.44303711 -51.56427734 285.74081055 -52.44482422 286.04760742 C-74.08689398 292.35140492 -98.6297452 288.98277121 -118.19873047 278.27807617 C-133.01253278 269.80316748 -143.31353227 258.6973606 -151.85498047 244.14526367 C-152.27521484 243.44916992 -152.69544922 242.75307617 -153.12841797 242.03588867 C-162.7967496 224.55554508 -165.12237303 200.62918555 -160.16748047 181.45776367 C-153.54169478 158.94856142 -140.1261318 139.63187499 -119.41723633 127.94726562 C-112.47918858 124.17964776 -105.50845129 121.17905312 -97.85498047 119.14526367 C-97.04673828 118.9209668 -96.23849609 118.69666992 -95.40576172 118.46557617 C-80.97899599 115.15897053 -61.93029727 115.29166896 -48.19873047 121.30932617 C-45.45158753 122.28914049 -44.53059088 122.22249106 -41.85498047 121.14526367 C-40.36424802 119.32665307 -40.36424802 119.32665307 -39.18310547 116.96557617 C-38.69213379 116.07056396 -38.20116211 115.17555176 -37.6953125 114.25341797 C-37.17050293 113.26897705 -36.64569336 112.28453613 -36.10498047 111.27026367 C-34.94367942 109.15286138 -33.77949613 107.03703792 -32.61279297 104.92260742 C-32.00081055 103.80998535 -31.38882813 102.69736328 -30.75830078 101.55102539 C-27.60776183 95.91351661 -24.293068 90.37579073 -20.97998047 84.83276367 C-15.00768056 74.81057183 -9.13454025 64.73667575 -3.32202148 54.62109375 C2.7439681 44.07595346 8.92839683 33.60215369 15.14501953 23.14526367 C14.57058105 23.13591797 13.99614258 23.12657227 13.40429688 23.11694336 C10.77536649 23.06291336 8.14815386 22.97933473 5.52001953 22.89526367 C4.61638672 22.88108398 3.71275391 22.8669043 2.78173828 22.85229492 C-2.85860765 22.64644288 -6.47031161 22.04582083 -10.85498047 18.14526367 C-13.40517327 14.5144807 -12.98385926 11.50500228 -12.40576172 7.27026367 C-11.64053077 4.31788327 -10.29266639 2.91812616 -7.85498047 1.14526367 C-5.14988125 -0.20728594 -3.0286204 0.01064089 0 0 Z M18.14501953 86.14526367 C22.76506542 94.64664888 22.76506542 94.64664888 27.52001953 103.06323242 C28.10533447 104.07724121 28.69064941 105.09125 29.29370117 106.13598633 C30.21010376 107.71839111 30.21010376 107.71839111 31.14501953 109.33276367 C31.79656006 110.4598877 32.44810059 111.58701172 33.11938477 112.74829102 C39.17438114 123.21819979 45.26862028 133.66517588 51.37158203 144.10717773 C53.23697457 147.30279238 55.09772885 150.50107339 56.95751953 153.69995117 C57.89905884 155.31812744 57.89905884 155.31812744 58.85961914 156.96899414 C60.05410704 159.02214351 61.24769198 161.0758186 62.44018555 163.13012695 C65.5840362 168.5301089 68.80198826 173.86613793 72.14501953 179.14526367 C76.06060074 177.84006993 76.39604962 176.43833554 78.37548828 172.87182617 C79.00527588 171.7508252 79.63506348 170.62982422 80.28393555 169.47485352 C80.61708771 168.87227722 80.95023987 168.26970093 81.29348755 167.64886475 C83.07158792 164.43400579 84.88006262 161.23625071 86.68408203 158.03588867 C87.05471268 157.37644257 87.42534332 156.71699646 87.8072052 156.03756714 C91.50547796 149.47045817 95.34418318 142.9916973 99.20751953 136.52026367 C104.62118976 127.42881747 109.98022937 118.3091459 115.27001953 109.14526367 C115.87338135 108.10160645 116.47674316 107.05794922 117.09838867 105.98266602 C117.67322998 104.98444824 118.24807129 103.98623047 118.84033203 102.95776367 C119.33549316 102.09795898 119.8306543 101.2381543 120.34082031 100.35229492 C122.99004257 95.64320377 125.5577146 90.88865605 128.14501953 86.14526367 C91.84501953 86.14526367 55.54501953 86.14526367 18.14501953 86.14526367 Z M147.14501953 97.14526367 C146.74412109 97.85207275 146.34322266 98.55888184 145.93017578 99.28710938 C137.78184367 113.63792048 129.54288561 127.92269931 121.09838867 142.10180664 C114.58043359 153.05941201 108.20993743 164.09835189 101.87109375 175.16040039 C100.64601546 177.27890212 99.4065472 179.38911157 98.15722656 181.4934082 C97.5151123 182.57605957 96.87299805 183.65871094 96.21142578 184.77416992 C95.33079468 186.24672241 95.33079468 186.24672241 94.43237305 187.74902344 C92.98726464 189.98554451 92.98726464 189.98554451 93.14501953 192.14526367 C107.66501953 192.14526367 122.18501953 192.14526367 137.14501953 192.14526367 C138.79501953 185.87526367 140.44501953 179.60526367 142.14501953 173.14526367 C148.50702966 158.96110995 155.84298986 147.84541011 167.14501953 137.14526367 C168.14705136 136.14729963 169.14741155 135.14764998 170.14501953 134.14526367 C166.38283444 127.76537415 162.61552116 121.38854193 158.84277344 115.01489258 C157.78143132 113.22095883 156.72104998 111.4264559 155.66210938 109.63110352 C154.40989772 107.50873393 153.15323738 105.38907617 151.89501953 103.27026367 C151.52513916 102.64112061 151.15525879 102.01197754 150.77416992 101.36376953 C149.92576138 99.94054744 149.03990933 98.53972787 148.14501953 97.14526367 C147.81501953 97.14526367 147.48501953 97.14526367 147.14501953 97.14526367 Z M-123.97998047 160.33276367 C-136.03536268 174.50143997 -140.91846021 190.73888353 -139.85498047 209.14526367 C-138.05830702 224.74038922 -131.16488658 238.33757364 -119.85498047 249.14526367 C-118.93652344 250.09272461 -118.93652344 250.09272461 -117.99951172 251.05932617 C-106.18867369 262.49241885 -90.0827002 266.67905919 -74.07080078 266.56518555 C-56.25111046 266.0129663 -42.35404888 258.60078132 -29.85498047 246.14526367 C-29.21818359 245.53166992 -28.58138672 244.91807617 -27.92529297 244.28588867 C-16.90036383 232.81996237 -12.29980298 216.90980363 -12.43505859 201.3046875 C-13.07983536 184.01764378 -20.0166904 169.65619987 -31.71826172 157.09448242 C-33.61920065 154.92061399 -33.61920065 154.92061399 -35.85498047 155.14526367 C-36.22558594 155.79148682 -36.59619141 156.43770996 -36.97802734 157.10351562 C-38.76840982 160.22271471 -40.56122199 163.34050472 -42.35498047 166.45776367 C-42.84952728 167.31738205 -42.84952728 167.31738205 -43.35406494 168.19436646 C-47.31911071 175.08142091 -51.31498891 181.94853879 -55.37841797 188.77807617 C-55.74457214 189.39367905 -56.11072632 190.00928192 -56.48797607 190.64353943 C-58.266403 193.63109157 -60.04934167 196.61586069 -61.83740234 199.59765625 C-62.48 200.67426514 -63.12259766 201.75087402 -63.78466797 202.86010742 C-64.35427246 203.81006592 -64.92387695 204.76002441 -65.51074219 205.73876953 C-66.96672291 208.16955346 -66.96672291 208.16955346 -67.85498047 211.14526367 C-72.85340076 213.58351747 -76.58894441 213.41930465 -81.85498047 212.14526367 C-85.30922812 209.38186555 -85.78569376 207.64696011 -86.39013672 203.27026367 C-86.25177863 196.3383836 -82.28477007 190.90339343 -78.79248047 185.14526367 C-78.07071929 183.9224753 -77.35069071 182.69866273 -76.63232422 181.47387695 C-74.39946396 177.68170596 -72.12945188 173.91257436 -69.85498047 170.14526367 C-69.1113933 168.90941767 -68.36806345 167.67341682 -67.625 166.43725586 C-67.26362442 165.83637146 -66.90224884 165.23548706 -66.52992249 164.61639404 C-65.81933093 163.43473527 -65.10890848 162.2529748 -64.39866638 161.07110596 C-62.73489778 158.30456845 -61.06320539 155.54344908 -59.37817383 152.78979492 C-58.78270752 151.81139648 -58.18724121 150.83299805 -57.57373047 149.82495117 C-56.78385742 148.53693604 -56.78385742 148.53693604 -55.97802734 147.22290039 C-54.69647479 145.24565125 -54.69647479 145.24565125 -54.85498047 143.14526367 C-56.22789914 142.66016574 -57.6034475 142.18250854 -58.97998047 141.70776367 C-59.74568359 141.44092773 -60.51138672 141.1740918 -61.30029297 140.89916992 C-83.8461697 134.24572312 -108.35975731 143.75497894 -123.97998047 160.33276367 Z M201.14501953 143.14526367 C202.51802571 146.80235546 204.16808181 150.10117176 206.12939453 153.47729492 C207.02839478 155.02912476 207.02839478 155.02912476 207.94555664 156.61230469 C208.58887939 157.71630615 209.23220215 158.82030762 209.89501953 159.95776367 C210.55445557 161.10108154 211.2138916 162.24439941 211.89331055 163.42236328 C215.27802597 169.28459623 218.71518707 175.10681581 222.25048828 180.87963867 C223.21680176 182.47714966 223.21680176 182.47714966 224.20263672 184.10693359 C225.42767379 186.12760838 226.66852261 188.13880748 227.92724609 190.13867188 C231.32616011 195.77804822 233.53044274 200.47910656 232.14501953 207.14526367 C230.03110076 210.64416371 229.02765894 211.85105054 225.14501953 213.14526367 C223.04473168 213.26275144 220.94102505 213.32210692 218.83764648 213.35058594 C216.88596306 213.38050377 216.88596306 213.38050377 214.89485168 213.411026 C213.47433593 213.42800913 212.05381893 213.44488798 210.63330078 213.46166992 C209.18026647 213.48224504 207.72723807 213.50324167 206.2742157 213.52464294 C202.45202424 213.57980601 198.62977927 213.62924065 194.80749512 213.67749023 C190.90628301 213.7277474 187.00514848 213.78341145 183.10400391 213.83862305 C175.45107484 213.94613409 167.7980812 214.04759466 160.14501953 214.14526367 C160.44663901 215.73802907 160.75297661 217.32990145 161.0612793 218.92138672 C161.23136002 219.80795456 161.40144073 220.6945224 161.57667542 221.60795593 C164.71846279 235.63410874 175.33138358 248.55829097 187.20751953 256.20776367 C202.84325041 265.78117906 220.41824296 268.94946485 238.45751953 265.14526367 C255.45064236 260.00165931 270.08086905 248.57560557 278.86767578 233.11401367 C286.25868112 218.15040581 287.84498868 203.28844115 284.14501953 187.14526367 C283.88785156 185.9290332 283.88785156 185.9290332 283.62548828 184.68823242 C279.82258446 169.50115201 268.75623809 156.44585352 255.73828125 148.20483398 C240.13400521 138.95196303 218.00633923 134.71460382 201.14501953 143.14526367 Z M176.95751953 158.02026367 C167.45196868 167.8815316 161.84781378 178.5229097 160.14501953 192.14526367 C174.33501953 192.14526367 188.52501953 192.14526367 203.14501953 192.14526367 C198.28410677 183.21887246 198.28410677 183.21887246 193.27783203 174.38354492 C192.62041016 173.24594727 191.96298828 172.10834961 191.28564453 170.9362793 C190.61379926 169.77675686 189.94192392 168.61725185 189.27001953 167.45776367 C188.57458373 166.25536102 187.87927057 165.05288742 187.18408203 163.8503418 C185.50559224 160.94795319 183.82588478 158.046277 182.14501953 155.14526367 C179.41461851 155.14526367 178.87521584 156.11573232 176.95751953 158.02026367 Z " fill="#000000" transform="translate(182.85498046875,223.854736328125)"/>
<path d="M0 0 C1.13259247 0.41279709 2.26518494 0.82559418 3.43209839 1.25090027 C6.50803309 2.37408853 9.58055563 3.50605682 12.65179062 4.64201736 C15.90551648 5.8429285 19.16353115 7.03209077 22.42114258 8.22241211 C27.78065261 10.18227731 33.13780606 12.14844772 38.49316406 14.11962891 C45.565541 16.72257736 52.64290882 19.3116906 59.72265625 21.89453125 C61.85628759 22.67308189 63.98991394 23.45164622 66.12353516 24.23022461 C67.16697083 24.61097137 68.21040649 24.99171814 69.28546143 25.38400269 C73.5525149 26.94186617 77.81861546 28.50232947 82.08468628 30.06288147 C96.45137003 35.31821741 110.82346128 40.5586009 125.19921875 45.7890625 C126.868741 46.39680008 126.868741 46.39680008 128.57199097 47.01681519 C141.71509754 51.80017576 154.86656041 56.55936588 168.03074837 61.28434563 C170.17212235 62.05307336 172.31331846 62.82229434 174.45445251 63.59169006 C175.86489746 64.09848361 177.27534363 64.60527379 178.68579102 65.11206055 C179.37878642 65.36107526 180.07178183 65.61008997 180.78577709 65.86665058 C184.8981941 67.3438921 189.01199151 68.81720951 193.12683392 70.28768063 C195.05942953 70.97898019 196.99136219 71.67209564 198.92301941 72.36601257 C201.28939318 73.21599068 203.65686396 74.06292286 206.02558899 74.90632629 C207.07127548 75.2828685 208.11696198 75.65941071 209.19433594 76.04736328 C210.10544128 76.3734256 211.01654663 76.69948792 211.95526123 77.03543091 C214.26171875 77.9765625 214.26171875 77.9765625 217.26171875 79.9765625 C217.6224823 81.84951782 217.6224823 81.84951782 217.60229492 84.15087891 C217.60206833 85.01162018 217.60184174 85.87236145 217.60160828 86.75918579 C217.58612442 87.68943573 217.57064056 88.61968567 217.5546875 89.578125 C217.55044266 90.52972504 217.54619781 91.48132507 217.54182434 92.46176147 C217.52499771 95.50864664 217.48733829 98.55487641 217.44921875 101.6015625 C217.43417706 103.66405296 217.42048776 105.72655377 217.40820312 107.7890625 C217.37508114 112.851816 217.32327159 117.91407804 217.26171875 122.9765625 C210.14250111 121.56982607 203.537559 119.43156953 196.734375 116.92578125 C195.06023026 116.31697868 195.06023026 116.31697868 193.3522644 115.69587708 C190.31054018 114.58869489 187.27065214 113.47664073 184.23148727 112.36245728 C180.99575508 111.17761181 177.75769337 109.99916872 174.51977539 108.8203125 C170.47863666 107.34862999 166.43770187 105.87639905 162.39775085 104.40145874 C153.44962038 101.13480909 144.49526663 97.88602444 135.53515625 94.65234375 C111.41389524 85.94507401 87.3175432 77.17564037 63.26171875 68.2890625 C44.5160495 61.36445044 25.74972573 54.50098251 6.94921875 47.7265625 C5.32463745 47.14015488 5.32463745 47.14015488 3.66723633 46.54190063 C0.64095363 45.45012607 -2.38633521 44.36119854 -5.4140625 43.2734375 C-6.30595779 42.95160995 -7.19785309 42.62978241 -8.11677551 42.29820251 C-8.93586899 42.00482498 -9.75496246 41.71144745 -10.59887695 41.40917969 C-11.30631546 41.15497253 -12.01375397 40.90076538 -12.74263 40.63885498 C-17.93020255 38.91726645 -20.14240193 39.19829666 -25.40234375 41.203125 C-26.08068771 41.45754868 -26.75903168 41.71197235 -27.45793152 41.97410583 C-28.95928312 42.53837986 -30.45878962 43.10758053 -31.95669556 43.68093872 C-36.22557288 45.31397011 -40.50866841 46.90917705 -44.7890625 48.51171875 C-46.19791969 49.04100227 -46.19791969 49.04100227 -47.63523865 49.58097839 C-58.68164711 53.7236466 -69.78215853 57.71556237 -80.88070679 61.71591187 C-101.97028724 69.31921584 -123.02385857 77.01385623 -144.05078125 84.7890625 C-163.06360716 91.81842217 -182.11313478 98.72882224 -201.22729492 105.4777832 C-209.74890834 108.48737849 -218.26153191 111.51613117 -226.74609375 114.62890625 C-227.52998474 114.91617081 -228.31387573 115.20343536 -229.121521 115.49940491 C-232.76197884 116.83462866 -236.40016989 118.17558842 -240.03515625 119.52563477 C-241.29291852 119.9885805 -242.55072795 120.45139813 -243.80859375 120.9140625 C-244.88898926 121.31496094 -245.96938477 121.71585937 -247.08251953 122.12890625 C-249.73828125 122.9765625 -249.73828125 122.9765625 -252.73828125 122.9765625 C-252.73828125 108.7865625 -252.73828125 94.5965625 -252.73828125 79.9765625 C-242.61351358 75.47666576 -242.61351358 75.47666576 -238.13818359 73.86450195 C-237.12744278 73.49854416 -236.11670197 73.13258636 -235.07533264 72.75553894 C-234.00246506 72.37085953 -232.92959747 71.98618011 -231.82421875 71.58984375 C-230.67831772 71.17595901 -229.53241669 70.76207428 -228.35179138 70.33564758 C-225.25212882 69.21672957 -222.15144367 68.10070427 -219.05029678 66.98590851 C-215.76917464 65.80551691 -212.48950752 64.62109658 -209.2097168 63.43701172 C-203.88541847 61.51527519 -198.5604504 59.59540814 -193.23486328 57.67724609 C-183.00431474 53.99232629 -172.77693681 50.29865368 -162.55078125 46.6015625 C-161.16581451 46.10103363 -161.16581451 46.10103363 -159.75286865 45.59039307 C-144.4226525 40.04896489 -129.10651261 34.46925482 -113.79529858 28.87558746 C-109.77496919 27.40708217 -105.75385477 25.94075295 -101.73202419 24.47636414 C-98.39789727 23.26234105 -95.06410328 22.0474057 -91.73046875 20.83203125 C-90.7401298 20.47100437 -90.7401298 20.47100437 -89.72978401 20.10268402 C-81.05036771 16.93683111 -72.38555637 13.73417289 -63.73321533 10.49507141 C-58.65323258 8.59360675 -53.56711983 6.70874281 -48.48095703 4.82388306 C-46.09100268 3.93379925 -43.70356474 3.03692586 -41.31884766 2.13290405 C-38.02987534 0.88654035 -34.73305308 -0.33641104 -31.43359375 -1.5546875 C-30.47711945 -1.92426071 -29.52064514 -2.29383392 -28.53518677 -2.67460632 C-17.90519213 -6.54044296 -10.30365021 -3.8389218 0 0 Z " fill="#000000" transform="translate(273.73828125,5.0234375)"/>
<path d="M0 0 C1.21021317 0.43772736 2.42042633 0.87545471 3.66731262 1.32644653 C6.95330958 2.51527855 10.23616316 3.71257362 13.51845932 4.91157913 C16.9777671 6.17363758 20.43990276 7.42789503 23.90161133 8.68334961 C42.38217833 15.39070802 60.83942517 22.16214673 79.28662109 28.96069336 C95.06807962 34.77429848 110.87811745 40.50707997 126.6953125 46.22265625 C145.48216962 53.01261823 164.25632806 59.83555916 183.0078125 66.72265625 C184.02593018 67.09624268 185.04404785 67.4698291 186.09301758 67.85473633 C188.97783206 68.91364126 191.86207834 69.97407715 194.74609375 71.03515625 C195.56652664 71.33635376 196.38695953 71.63755127 197.23225403 71.94787598 C204.08146604 74.47217157 210.87992855 77.10135473 217.6953125 79.72265625 C217.6953125 94.24265625 217.6953125 108.76265625 217.6953125 123.72265625 C202.66199215 118.8117716 187.80907906 113.53092212 172.98553467 108.02194214 C166.66778233 105.6746285 160.34560186 103.33930519 154.0234375 101.00390625 C153.39650875 100.77221174 152.76958 100.54051723 152.12365341 100.30180168 C141.46023278 96.36157994 130.77667367 92.48197021 120.0703125 88.66015625 C106.04326207 83.65057585 92.03779369 78.58423077 78.0425415 73.4864502 C74.58227508 72.22701029 71.12112217 70.97003861 67.65966797 69.71386719 C56.85245182 65.79058964 46.04877027 61.85906304 35.26299477 57.87723732 C29.63127385 55.79854838 23.99574408 53.7304184 18.35764122 51.66910362 C14.95171646 50.42318207 11.5481249 49.17156699 8.14935303 47.90625 C4.36862825 46.49878305 0.57938506 45.11578649 -3.2109375 43.734375 C-4.33446625 43.31149704 -5.457995 42.88861908 -6.61557007 42.45292664 C-17.44576817 38.54961251 -24.28745478 41.21672589 -34.78515625 45.0703125 C-36.00904053 45.5135083 -37.2329248 45.9567041 -38.49389648 46.41333008 C-41.80726951 47.61331696 -45.11757444 48.82156253 -48.42736435 50.03139114 C-51.90396517 51.30052666 -55.38340077 52.56184266 -58.86254883 53.82397461 C-65.11610553 56.09379794 -71.36736348 58.36986951 -77.61744404 60.64924526 C-83.43860743 62.77206512 -89.2619065 64.88896906 -95.0859375 67.00390625 C-100.29238345 68.89500878 -105.4985145 70.78695645 -110.703125 72.68310547 C-120.76331853 76.34797316 -130.82831878 79.9992036 -140.8984375 83.63671875 C-145.76308047 85.39436626 -150.62765337 87.15220754 -155.4921875 88.91015625 C-156.69918304 89.34625214 -157.90617859 89.78234802 -159.14974976 90.23165894 C-173.22428265 95.31901626 -187.28572755 100.4391301 -201.32421875 105.625 C-201.97911978 105.86683455 -202.63402081 106.10866909 -203.30876732 106.35783195 C-210.24354465 108.91883176 -217.17625752 111.48526987 -224.10620117 114.05932617 C-226.37026398 114.89766683 -228.63434194 115.73596655 -230.8984375 116.57421875 C-231.90940994 116.95138535 -232.92038239 117.32855194 -233.96199036 117.71714783 C-234.91748276 118.07039627 -235.87297516 118.42364471 -236.85742188 118.78759766 C-238.0806012 119.24218857 -238.0806012 119.24218857 -239.32849121 119.70596313 C-243.61326255 121.16967624 -247.96776246 122.42157874 -252.3046875 123.72265625 C-252.3046875 109.20265625 -252.3046875 94.68265625 -252.3046875 79.72265625 C-227.46140012 70.50659803 -202.59982779 61.35335996 -177.6796875 52.34765625 C-159.19104156 45.66512516 -140.70722661 38.97018604 -122.2421875 32.22265625 C-121.1995575 31.84171814 -120.15692749 31.46078003 -119.08270264 31.06829834 C-106.41094445 26.43686289 -93.74731529 21.78359873 -81.08984375 17.11328125 C-79.79882486 16.63703933 -78.50780415 16.16080234 -77.21678162 15.68457031 C-71.03796374 13.40506106 -64.85997406 11.12333881 -58.68334961 8.83789062 C-53.23709985 6.82375338 -47.78533882 4.82515607 -42.33056641 2.83422852 C-39.36717141 1.74561004 -36.41198017 0.63669419 -33.45703125 -0.47460938 C-31.66694564 -1.13357083 -29.87659674 -1.79181767 -28.0859375 -2.44921875 C-27.29231812 -2.75410217 -26.49869873 -3.0589856 -25.68103027 -3.37310791 C-16.35693591 -6.74485061 -8.93124316 -3.27447032 0 0 Z " fill="#000000" transform="translate(273.3046875,90.27734375)"/>
</svg>
