<svg id="Capa_1" data-name="Capa 1" xmlns="http://www.w3.org/2000/svg" viewBox="0 0 24 24"><title>04 bridge</title><path d="M0,6V18H4V13.92H4a3,3,0,0,1,6,0h0V18h4V13.92h0a3,3,0,0,1,6,0h0V18h4V6Z"/><path d="M20,24a3.61,3.61,0,0,1-2.75-1.31c-.48-.48-.71-.69-1.26-.69s-.78.21-1.26.69a3.52,3.52,0,0,1-5.48,0C8.77,22.21,8.54,22,8,22s-.77.21-1.25.69A3.58,3.58,0,0,1,4,24a3.58,3.58,0,0,1-2.74-1.31C.78,22.21.54,22,0,22V19.91a3.61,3.61,0,0,1,2.74,1.3c.48.49.71.7,1.26.7s.78-.21,1.26-.7a3.53,3.53,0,0,1,5.47,0c.48.49.72.7,1.26.7s.78-.21,1.26-.7a3.54,3.54,0,0,1,5.48,0c.48.49.72.7,1.27.7s.78-.21,1.26-.7A3.61,3.61,0,0,1,24,19.91V22c-.55,0-.78.21-1.26.69A3.58,3.58,0,0,1,20,24Z"/></svg>