<svg id="Capa_1" data-name="Capa 1" xmlns="http://www.w3.org/2000/svg" viewBox="0 0 24 24"><title>Pavement ends</title><path d="M24,24,20.46,10,20,8H17v2H15V8H13V6h2V4H13V2h2V0H13V2H11V4h2V6H11V8h2v2H11V8H9v2H7V8H4l-.55,2L0,24H11V20h2v4ZM13,11.68v1.66H11V11.68Zm-2,6.18v-2.5h2v2.5Z"/><rect x="6.99" y="6" width="2" height="2"/><rect x="15.01" y="6" width="2" height="2"/><rect x="6.99" y="1.99" width="2" height="2"/><rect x="15.01" y="1.99" width="2" height="2"/><rect x="9" y="3.99" width="2" height="2"/><polygon points="4.93 3.99 4.44 6 6.99 6 6.99 3.99 4.93 3.99"/><polygon points="19.45 6 18.94 3.99 17.01 3.99 17.01 6 19.45 6"/><polygon points="5.92 -0.02 5.43 1.99 6.99 1.99 6.99 -0.02 5.92 -0.02"/><polygon points="17.93 -0.02 17.01 -0.02 17.01 1.99 18.44 1.99 17.93 -0.02"/><rect x="9" y="-0.02" width="2" height="2"/></svg>
