<?xml version="1.0" encoding="utf-8"?>
<!-- Svg Vector Icons : http://www.onlinewebfonts.com/icon -->
<!DOCTYPE svg PUBLIC "-//W3C//DTD SVG 1.1//EN" "http://www.w3.org/Graphics/SVG/1.1/DTD/svg11.dtd">
<svg version="1.1" xmlns="http://www.w3.org/2000/svg" xmlns:xlink="http://www.w3.org/1999/xlink" x="0px" y="0px" viewBox="0 0 256 256" enable-background="new 0 0 256 256" xml:space="preserve">
<metadata> Svg Vector Icons : http://www.onlinewebfonts.com/icon </metadata>
<g><g><g><path fill="#000000" d="M94.2,10.9c-5.9,2-9.6,5.3-12.3,11c-1.4,2.9-1.5,3.7-1.5,8.1c0,4.5,0.1,5.2,1.5,8.1c3.4,7.1,9.5,11.3,16.9,11.8c4.3,0.2,8.2-0.6,11.7-2.7c2.3-1.4,6.3-5.4,7.2-7.4l0.5-1.2h9.3h9.3v17.5v17.5l-1.8,0.6c-4.2,1.4-7.2,4-9.5,8.6c-1.5,2.9-1.5,3.1-1.5,10.5v7.6H98.5c-27.5,0-29,0.1-35.2,2.6c-4.7,1.9-8.2,4.2-12.2,8c-7,6.6-11.3,14.2-13.8,24.4c-0.6,2.5-0.8,7.3-1,21.9L36,176.4h17.1h17.1v-13.1c0-12,0.1-13.3,1-15.8c1.9-5.1,7.4-9.1,15.2-11.2c3.6-0.9,6.1-0.9,71.3-0.9h67.6v-17.3v-17.3l-21.8-0.1l-21.9-0.1l-0.2-8.1c-0.2-7.2-0.4-8.4-1.4-10.5c-2-4-5.2-6.7-9.7-8l-2-0.6V56.1V38.9l9.6-0.1l9.6-0.1l0.9,1.7c1.4,2.6,5.9,6.6,9,8c2.5,1.1,3.5,1.3,8.1,1.3c5,0,5.3-0.1,8.9-1.9c4.5-2.2,7.2-5,9.5-9.7c1.4-2.9,1.5-3.7,1.5-8.1c0-4.5-0.1-5.2-1.5-8.1c-2.3-4.7-5-7.6-9.5-9.7c-3.6-1.8-4-1.9-8.7-1.9c-4,0.1-5.5,0.2-7.9,1.2c-3.2,1.3-8,5.4-9.5,8.1l-1,1.8h-10.1l-10.1-0.1l-1.7-2.7c-1.8-2.9-5.3-5.6-8.6-6.6c-2.8-0.9-8.4-0.4-11,0.9c-2.9,1.5-5.4,3.8-6.9,6.3l-1.3,2.2H128h-9.8l-0.5-1.2c-0.9-1.9-4.9-6-7.2-7.4C105.8,10,98.9,9.2,94.2,10.9z"/><path fill="#000000" d="M45.8,189.1c-6.1,8.2-11.2,18.2-13.9,27.3c-1,3.4-1.3,5.3-1.3,9.6c0,5,0,5.7,1.4,8.5c4,8.7,14.7,13.3,24.7,10.8c8.3-2.2,13.8-8.2,14.8-16.6c1.1-9.3-5.6-26.2-16.1-40.6c-2.3-3.1-2.6-3.3-4.4-3.3C49,184.8,48.8,185,45.8,189.1z"/></g></g></g>
</svg>