<?xml version="1.0" encoding="UTF-8"?>
<svg xmlns="http://www.w3.org/2000/svg" width="613pt" height="614pt" viewBox="0 0 613 614">
  <defs>
    <clipPath id="a">
      <path d="M0 0h613v614H0z"/>
    </clipPath>
  </defs>
  <g clip-path="url(#a)">
    <path fill="none" stroke="#fff" stroke-miterlimit="10" stroke-width=".1" d="M0 0h613v614H0V0Zm0 0"/>
    <path fill="#fff" d="M0 0h613v614H0V0Zm0 0"/>
    <path fill="none" stroke="#000" stroke-miterlimit="10" stroke-width=".1" d="M64.595245 18.772858c4.771668-.783539 9.605576-1.201065 14.440674-1.276154 150.983383.005692 301.966767.014877 452.950272-.004578 16.306183.085968 33.755279 4.025422 45.721191 15.809586 12.574982 11.925446 17.144959 29.853531 17.548218 46.671936-.017105 153.352463.010864 306.705368-.013977 460.057694-.584549 15.679763-5.179901 32.226333-17.002197 43.210022-11.770829 11.13269-28.51529 14.744415-44.252304 15.011138-152.678391-.003143-305.356949-.001571-458.035248-.000778-16.616791-.23732-34.328736-4.900406-45.858139-17.577148-11.300049-12.241471-14.747284-29.466629-14.84253-45.639618-.000351-150.358078-.000442-300.716446.000061-451.074463.096985-15.22139 2.818818-31.136154 11.992524-43.680252 8.605514-12.178833 22.881408-19.210922 37.351455-21.507385Zm0 0"/>
    <path d="M64.595245 18.772858c4.771668-.783539 9.605576-1.201065 14.440674-1.276154 150.983383.005692 301.966767.014877 452.950272-.004578 16.306183.085968 33.755279 4.025422 45.721191 15.809586 12.574982 11.925446 17.144959 29.853531 17.548218 46.671936-.017105 153.352463.010864 306.705368-.013977 460.057694-.584549 15.679763-5.179901 32.226333-17.002197 43.210022-11.770829 11.13269-28.51529 14.744415-44.252304 15.011138-152.678391-.003143-305.356949-.001571-458.035248-.000778-16.616791-.23732-34.328736-4.900406-45.858139-17.577148-11.300049-12.241471-14.747284-29.466629-14.84253-45.639618-.000351-150.358078-.000442-300.716446.000061-451.074463.096985-15.22139 2.818818-31.136154 11.992524-43.680252 8.605514-12.178833 22.881408-19.210922 37.351455-21.507385Zm0 0"/>
    <path fill="none" stroke="#fff" stroke-miterlimit="10" stroke-width=".1" d="M172.526917 85.15596c.041839-5.166443 5.170776-9.407654 10.25827-8.507187 4.675476.40596 8.006164 4.886383 7.952118 9.413269.032242 35.228607-.005204 70.458802.017975 105.688248 4.915634-.006424 9.832.006668 14.749435-.009201.00354-35.852326-.040329-71.706589.021072-107.557358.33812-5.987198 7.874695-9.307083 12.863129-6.403625 3.458664 1.588409 4.6745 5.639328 4.601501 9.175232.026398 34.931549-.004318 69.864059.014664 104.796203 4.995636-.004562 9.992081-.004745 14.989777.000107.011139-35.292435.003326-70.584961.003296-105.876984-.325104-4.593628 3.28717-9.134872 8.003708-9.31308 4.764099-.540527 9.018829 3.674378 8.980163 8.367753.046112 35.60643-.001678 71.214874.023087 106.822296 5.07933-.005448 10.159622-.002884 15.241256-.002228.016343-35.589645-.009704-71.179825.012299-106.768768-.195374-4.660767 4.236877-8.595597 8.806351-8.277893 4.966476-.339921 9.082992 4.271255 8.90184 9.10086.077942 48.071488.009918 96.14624.033844 144.218933.109573 17.057907-15.077728 32.695023-32.251556 32.542679-.0047 86.845886.008544 173.692062-.006531 260.537857-.190918 8.091095-3.637238 16.467957-10.413132 21.209229-7.533127 5.614456-18.258881 6.208679-26.523697 1.858932-8.446258-4.302078-13.297088-13.809753-13.3181-23.093628.026505-86.835388-.00151-173.670654.014069-260.50592-8.420288-.027863-16.928971-3.116425-22.936753-9.107681-6.654281-6.240601-10.103424-15.425721-10.077987-24.466507.04512-47.947007-.035324-95.895874.039902-143.841538Zm0 0"/>
    <path fill="#fff" d="M172.526917 85.15596c.041839-5.166443 5.170776-9.407654 10.25827-8.507187 4.675476.40596 8.006164 4.886383 7.952118 9.413269.032242 35.228607-.005204 70.458802.017975 105.688248 4.915634-.006424 9.832.006668 14.749435-.009201.00354-35.852326-.040329-71.706589.021072-107.557358.33812-5.987198 7.874695-9.307083 12.863129-6.403625 3.458664 1.588409 4.6745 5.639328 4.601501 9.175232.026398 34.931549-.004318 69.864059.014664 104.796203 4.995636-.004562 9.992081-.004745 14.989777.000107.011139-35.292435.003326-70.584961.003296-105.876984-.325104-4.593628 3.28717-9.134872 8.003708-9.31308 4.764099-.540527 9.018829 3.674378 8.980163 8.367753.046112 35.60643-.001678 71.214874.023087 106.822296 5.07933-.005448 10.159622-.002884 15.241256-.002228.016343-35.589645-.009704-71.179825.012299-106.768768-.195374-4.660767 4.236877-8.595597 8.806351-8.277893 4.966476-.339921 9.082992 4.271255 8.90184 9.10086.077942 48.071488.009918 96.14624.033844 144.218933.109573 17.057907-15.077728 32.695023-32.251556 32.542679-.0047 86.845886.008544 173.692062-.006531 260.537857-.190918 8.091095-3.637238 16.467957-10.413132 21.209229-7.533127 5.614456-18.258881 6.208679-26.523697 1.858932-8.446258-4.302078-13.297088-13.809753-13.3181-23.093628.026505-86.835388-.00151-173.670654.014069-260.50592-8.420288-.027863-16.928971-3.116425-22.936753-9.107681-6.654281-6.240601-10.103424-15.425721-10.077987-24.466507.04512-47.947007-.035324-95.895874.039902-143.841538Zm0 0"/>
    <path fill="none" stroke="#fff" stroke-miterlimit="10" stroke-width=".1" d="M356.835846 86.913208c11.674408-11.221909 30.690338-13.266815 44.72699-5.376053 8.729034 4.778275 15.117782 13.320313 17.83313 22.839111 1.961608 6.673447 2.136352 13.696045 2.11029 20.602326-.016952 131.67514.012192 263.35051-.014542 395.025543.033768 7.770615-2.037078 16.059799-7.961242 21.472504-9.823746 9.468414-27.421478 8.587692-36.237335-1.836685-4.223725-4.838684-6.275437-11.308838-6.296997-17.673844.006744-53.405426.005081-106.810776.001037-160.215942-8.916138-.005188-17.831177.001709-26.745544-.003235.0139-80.956177-.031311-161.912918.022522-242.868423.085815-11.676331 3.793945-23.862168 12.561691-31.965302Zm0 0"/>
    <path fill="#fff" d="M356.835846 86.913208c11.674408-11.221909 30.690338-13.266815 44.72699-5.376053 8.729034 4.778275 15.117782 13.320313 17.83313 22.839111 1.961608 6.673447 2.136352 13.696045 2.11029 20.602326-.016952 131.67514.012192 263.35051-.014542 395.025543.033768 7.770615-2.037078 16.059799-7.961242 21.472504-9.823746 9.468414-27.421478 8.587692-36.237335-1.836685-4.223725-4.838684-6.275437-11.308838-6.296997-17.673844.006744-53.405426.005081-106.810776.001037-160.215942-8.916138-.005188-17.831177.001709-26.745544-.003235.0139-80.956177-.031311-161.912918.022522-242.868423.085815-11.676331 3.793945-23.862168 12.561691-31.965302Zm0 0"/>
  </g>
</svg>