<?xml version="1.0" encoding="utf-8"?>
<!-- Svg Vector Icons : http://www.onlinewebfonts.com/icon -->
<!DOCTYPE svg PUBLIC "-//W3C//DTD SVG 1.1//EN" "http://www.w3.org/Graphics/SVG/1.1/DTD/svg11.dtd">
<svg version="1.1" xmlns="http://www.w3.org/2000/svg" xmlns:xlink="http://www.w3.org/1999/xlink" x="0px" y="0px" viewBox="0 0 256 256" enable-background="new 0 0 256 256" xml:space="preserve">
<metadata> Svg Vector Icons : http://www.onlinewebfonts.com/icon </metadata>
<g><g><g><path fill="#000000" d="M48.2,21.3C47.8,23,39.2,71.9,29,130c-10.2,58.1-18.7,106.1-18.9,106.7c-0.3,0.9,0.1,1,4.1,0.9l4.5-0.2l2.1-12c1.2-6.6,9.8-55.2,19-107.9C49.1,64.7,56.8,20.8,57,19.9l0.3-1.5h-4.3h-4.3L48.2,21.3z"/><path fill="#000000" d="M66.9,18.9c0,0.3-8.6,49.3-19.1,109C37.3,187.6,28.7,236.7,28.7,237c0,0.5,29.8,0.6,99.6,0.6H228l-0.3-1.3c-0.2-0.7-8.7-49.4-19.1-108.3c-10.3-58.9-19-107.6-19.1-108.4l-0.3-1.3H128C88.9,18.4,66.9,18.5,66.9,18.9z M132.6,36.6v11.4H128h-4.6V36.6V25.2h4.6h4.6V36.6z M132.6,82.3v11.4H128h-4.6V82.3V70.9h4.6h4.6V82.3z M132.6,128v11.4H128h-4.6V128v-11.4h4.6h4.6V128z M132.6,173.7v11.4H128h-4.6v-11.4v-11.4h4.6h4.6V173.7z M132.6,219.4v11.4H128h-4.6v-11.4v-11.4h4.6h4.6V219.4z"/><path fill="#000000" d="M199.4,19.2c0,1.2,38.3,218,38.5,218.2c0.1,0.1,2,0.2,4.2,0.1l3.9-0.2l-3.5-20.3c-2-11.1-8.8-50.6-15.4-87.6c-6.5-37.1-13.5-77.2-15.6-89.2l-3.8-21.8h-4.1C200.2,18.4,199.4,18.5,199.4,19.2z"/></g></g></g>
</svg>