<?xml version="1.0" encoding="UTF-8" standalone="no"?>
<!-- Created with Inkscape (http://www.inkscape.org/) -->

<svg
   xmlns:dc="http://purl.org/dc/elements/1.1/"
   xmlns:cc="http://creativecommons.org/ns#"
   xmlns:rdf="http://www.w3.org/1999/02/22-rdf-syntax-ns#"
   xmlns:svg="http://www.w3.org/2000/svg"
   xmlns="http://www.w3.org/2000/svg"
   xmlns:sodipodi="http://sodipodi.sourceforge.net/DTD/sodipodi-0.dtd"
   xmlns:inkscape="http://www.inkscape.org/namespaces/inkscape"
   width="730.5415"
   height="726.76556"
   id="svg2"
   version="1.1"
   inkscape:version="0.48.0 r9654"
   sodipodi:docname="Documento nuevo 1">
  <defs
     id="defs4" />
  <sodipodi:namedview
     id="base"
     pagecolor="#ffffff"
     bordercolor="#666666"
     borderopacity="1.0"
     inkscape:pageopacity="0.0"
     inkscape:pageshadow="2"
     inkscape:zoom="0.53915183"
     inkscape:cx="409.85334"
     inkscape:cy="220.73308"
     inkscape:document-units="px"
     inkscape:current-layer="layer1"
     showgrid="false"
     fit-margin-top="0"
     fit-margin-left="0"
     fit-margin-right="0"
     fit-margin-bottom="0"
     inkscape:window-width="1280"
     inkscape:window-height="750"
     inkscape:window-x="-8"
     inkscape:window-y="-8"
     inkscape:window-maximized="1" />
  <metadata
     id="metadata7">
    <rdf:RDF>
      <cc:Work
         rdf:about="">
        <dc:format>image/svg+xml</dc:format>
        <dc:type
           rdf:resource="http://purl.org/dc/dcmitype/StillImage" />
        <dc:title></dc:title>
      </cc:Work>
    </rdf:RDF>
  </metadata>
  <g
     inkscape:label="Capa 1"
     inkscape:groupmode="layer"
     id="layer1"
     transform="translate(-8.548594,-142.49213)">
    <path
       sodipodi:type="arc"
       style="fill:#ffffff;fill-opacity:1;fill-rule:nonzero;stroke:none"
       id="path3026"
       sodipodi:cx="434.01505"
       sodipodi:cy="428.14838"
       sodipodi:rx="274.50525"
       sodipodi:ry="274.50525"
       d="m 708.52029,428.14838 a 274.50525,274.50525 0 1 1 -549.01049,0 274.50525,274.50525 0 1 1 549.01049,0 z"
       transform="matrix(1.2939189,0,0,1.2939189,-184.86079,-47.338169)" />
    <path
       inkscape:connector-curvature="0"
       id="path2998"
       d="m 345.60388,868.88695 c -1.65,-0.22189 -7.275,-0.89049 -12.5,-1.48577 -46.5235,-5.30038 -90.6297,-19.62239 -134.2185,-43.58291 -30.9677,-17.02281 -56.1404,-36.53298 -83.7987,-64.94837 C 69.694695,712.23532 37.902195,654.22503 22.254195,589.48264 c -12.0943,-50.03884 -12.119,-110.45881 -0.067,-164.5 2.4944,-11.18524 12.9502,-44.11337 17.6231,-55.5 9.4776,-23.09452 30.7094,-59.79512 47.1487,-81.5 18.233395,-24.07338 50.315385,-56.07046 71.645285,-71.4556 26.3962,-19.03939 50.7679,-33.0006 77,-44.10912 21.1916,-8.974 29.5806,-11.83398 51,-17.38696 22.5536,-5.84702 38.1072,-8.35099 60.75,-9.78015 10.3125,-0.6509 18.75,-1.54001 18.75,-1.97581 0,-1.16975 19.7725,-0.96948 20.5,0.20764 0.34,0.55 3.629,1.00732 7.3091,1.01627 20.1773,0.0491 43.8396,3.43343 70.4156,10.07134 31.9674,7.98452 59.933,19.12031 88.7479,35.33908 15.1517,8.52824 22.2177,13.12727 43.9007,28.57331 13.6448,9.71996 43.783,38.40436 57.2623,54.5 21.4622,25.62799 36.5421,49.52885 51.8813,82.22898 13.486,28.74936 25.9454,69.62156 29.1072,95.48379 0.653,5.34203 1.5034,9.51744 1.8897,9.2787 1.3765,-0.85069 1.972,13.49692 1.972,47.50853 0,33.90435 -0.6349,49.18582 -1.9547,47.05028 -0.3671,-0.59406 -1.2068,3.5391 -1.8659,9.18481 -1.63,13.9622 -7.9963,40.20956 -14.011,57.76491 -5.0872,14.84855 -10.3459,28.61165 -12.128,31.74179 -0.5505,0.96701 -3.1778,6.48321 -5.8383,12.25821 -5.1419,11.16115 -20.2046,38.15295 -23.159,41.5 -0.971,1.1 -3.8208,5.15 -6.3331,9 -11.7272,17.97228 -37.6512,46.57957 -60.1689,66.39697 -11.7703,10.35873 -20.975,17.26074 -41.0269,30.76326 -18.5107,12.46474 -55.1657,29.9185 -79,37.61689 -28.7868,9.29806 -40.0888,11.94877 -70,16.41749 -9.4845,1.417 -70.2691,2.74934 -78,1.7097 z m 71.5,-5.40329 c 3.575,-0.56474 12.35,-1.90938 19.5,-2.98809 35.2226,-5.31397 75.3325,-18.95871 109.5,-37.25011 5.225,-2.79718 10.85,-5.77061 12.5,-6.60763 3.7505,-1.90255 13.8336,-8.50266 23,-15.05519 3.85,-2.75213 9.25,-6.55 12,-8.43973 7.9081,-5.43417 28.981,-24.32021 41.0243,-36.76681 13.0414,-13.47822 24.8688,-27.55347 33.3122,-39.64343 3.3609,-4.81252 7.4209,-10.55003 9.0222,-12.75003 1.6013,-2.2 6.3489,-10.12835 10.5504,-17.61855 23.4934,-41.88365 37.9218,-84.43849 44.3463,-130.79357 2.4513,-17.68728 2.7113,-22.40173 2.6795,-48.58788 -0.031,-25.89491 -0.3211,-31.03437 -2.705,-48 -3.5086,-24.96897 -7.4312,-41.95175 -14.898,-64.5 -12.7002,-38.35194 -30.7284,-72.75039 -54.9263,-104.80126 -17.0139,-22.53545 -50.2719,-55.61326 -69.4056,-69.02956 -3.3,-2.31393 -10.5,-7.36211 -16,-11.21818 -22.0851,-15.48399 -52.0713,-30.64249 -82.1667,-41.53656 -12.1771,-4.40794 -44.9279,-12.69371 -58.3333,-14.75799 -24.4392,-3.76336 -28.1553,-4.01488 -59.5,-4.02702 -31.4481,-0.0122 -34.6978,0.20777 -59.5,4.02702 -12.1145,1.86551 -44.5542,9.92855 -57,14.16762 -9.8572,3.35739 -32.361,12.85024 -42.5,17.92787 -12.6869,6.35368 -33.8556,18.84378 -42.5,25.0762 -4.675,3.37058 -10.975,7.82531 -14,9.8994 -12.6519,8.67479 -40.0882,34.27218 -53.88399,50.27246 -14.855795,17.22965 -19.849995,23.78635 -31.881895,41.8561 -25.8258,38.78591 -45.6579,89.47462 -52.6796,134.6439 -3.877,24.93953 -4.5545,33.91365 -4.5545,60.33108 0,59.18105 11.5466,109.24377 36.5957,158.66892 19.6653,38.80217 37.8305,63.984 67.862585,94.0754 29.1243,29.18181 53.773,47.49094 86.7684,64.45171 35.3102,18.15063 76.3178,31.91409 107.2733,36.00437 4.4,0.58139 10.4398,1.5351 13.4218,2.11936 2.982,0.58425 10.407,1.43228 16.5,1.88451 13.9491,1.03531 61.9278,0.33218 70.5782,-1.03433 z m -60,-16.00278 c -24.9133,-1.74442 -38.7938,-3.98294 -67.5,-10.88572 -43.3646,-10.42762 -93.5796,-36.02872 -129.3489,-65.94592 -21.4879,-17.97227 -47.3633,-45.37297 -61.066785,-64.6666 -12.4584,-17.54062 -27.7714,-44.58326 -34.8246,-61.5 -9.7605,-23.41027 -19.4553,-53.38952 -21.2302,-65.65056 -0.5454,-3.76719 -1.6443,-9.99944 -2.4419,-13.84944 -10.7703,-51.98249 -4.7944,-119.55582 15.2994,-173 9.1259,-24.27269 10.7946,-28.19253 17.0716,-40.10155 12.1506,-23.05275 23.6183,-40.80914 37.134185,-57.49806 12.3596,-15.26113 40.8057,-43.4988 54.4419,-54.04295 25.3112,-19.57177 52.9247,-36.04647 79.2205,-47.26433 27.7216,-11.82609 64.6556,-21.26204 97.7448,-24.97194 15.3867,-1.72512 52.659,-2.09056 64,-0.6275 4.4,0.56763 12.05,1.48846 17,2.04629 23.9231,2.69598 62.1652,13.06726 86.5697,23.47776 23.5976,10.06624 52.1708,26.675 72.8726,42.35867 26.9728,20.43458 56.0803,50.46411 74.2709,76.62361 11.4318,16.43986 27.6029,45.45964 32.3292,58.01643 1.3786,3.66244 3.4077,8.42564 4.5093,10.5849 5.6437,11.06256 15.9693,47.75036 19.3912,68.89867 4.33,26.76131 4.9324,33.86619 4.9174,58 -0.015,24.20972 -0.6329,31.46108 -4.9416,58 -3.4756,21.40729 -12.2987,52.92027 -18.8989,67.5 -1.4939,3.3 -3.8275,8.925 -5.1858,12.5 -5.4556,14.35909 -23.6501,45.65773 -36.9138,63.5 -43.0677,57.93502 -103.1742,101.19157 -169.9202,122.28569 -41.1097,12.99217 -86.3519,18.88366 -124.5,16.21255 z m 67.5169,-88.32097 c 26.08,-4.89194 53.9622,-14.47218 75.1008,-25.80437 4.1493,-2.2244 7.6911,-3.89328 7.8706,-3.70863 0.4584,0.47145 10.2516,17.26626 13.7531,23.58573 3.0128,5.4377 5.0367,6.51233 6.5915,3.5 0.4968,-0.9625 2.355,-6.925 4.1293,-13.25 1.7742,-6.325 7.4586,-26.38279 12.6319,-44.57287 5.1732,-18.19008 9.4059,-34.26501 9.4059,-35.72207 0,-2.33929 -0.6141,-2.82412 -5.25,-4.1446 -20.8186,-5.92997 -90.5494,-24.56046 -91.9258,-24.56046 -0.9384,0 -1.9894,0.45832 -2.3356,1.01849 -0.3462,0.56017 3.2272,7.748 7.941,15.97296 4.7137,8.22496 8.5704,15.21719 8.5704,15.53829 0,1.17399 -24.7943,12.38048 -35,15.81922 -30.385,10.23806 -63.8628,12.3588 -95,6.01804 -9.1875,-1.87095 -30.362,-8.64222 -38.5097,-12.31478 -8.7246,-3.93262 -25.8095,-14.39803 -34.5752,-21.17909 -4.1756,-3.23022 -8.2387,-5.87313 -9.029,-5.87313 -0.7904,0 -10.4256,10.88473 -21.4116,24.18829 -23.9396,28.98987 -22.784,27.4362 -21.7631,29.26038 2.9059,5.19254 37.0734,27.38656 55.0721,35.77286 23.101,10.76367 57.5292,20.58484 79.7165,22.74037 4.4,0.42747 19.7,0.67987 34,0.5609 23.294,-0.19381 27.4589,-0.48997 40.0169,-2.84553 z M 195.62258,542.42287 c 33.8879,-33.96178 35.8684,-36.14357 34.0402,-37.5 -1.5094,-1.11989 -5.6899,-1.44023 -18.7953,-1.44023 l -16.8542,0 0.4982,-3.25 c 0.2741,-1.7875 0.7788,-7.75 1.1216,-13.25 0.9561,-15.33686 5.7753,-35.85596 12.5955,-53.62937 4.0814,-10.63601 14.1706,-29.11129 21.8006,-39.92121 7.8073,-11.06103 25.0426,-28.23455 38.5747,-38.4366 9.2985,-7.01018 28.8509,-17.74819 42.25,-23.20335 3.781,-1.53935 5.25,-2.67733 5.25,-4.067 0,-2.68437 -21.7129,-60.38398 -23.3326,-62.00363 -2.5386,-2.53868 -25.6196,7.59465 -47.6674,20.92764 -15.6815,9.4831 -29.7109,20.8437 -47.1652,38.19293 -30.4679,30.28456 -48.945,60.54618 -62.9752,103.14059 -6.1578,18.69464 -11.8596,50.21217 -11.8596,65.55636 l 0,9.94364 -15.91819,0 c -16.869495,0 -19.081795,0.31617 -19.081795,2.72708 0,1.75641 68.682485,72.27292 70.393185,72.27292 0.6293,0 17.3357,-16.2269 37.1255,-36.05977 z m 437.4482,6.12174 c 1.83,-3.4195 4.0331,-27.06547 4.0331,-43.28806 0,-17.15889 -2.6808,-41.99073 -6.1114,-56.60909 -15.4805,-65.9648 -55.6982,-123.06502 -112.4786,-159.69452 l -8.4903,-5.47716 2.767,-4.74657 c 1.5219,-2.61061 5.1399,-8.77346 8.0402,-13.69522 5.7218,-9.71007 6.459,-12.55135 3.2567,-12.55135 -3.6418,0 -94.4534,23.08213 -95.7222,24.33029 -0.9828,0.96675 1.4276,11.20474 11.6689,49.56305 7.0992,26.58953 13.3549,48.79185 13.9016,49.3385 0.5466,0.54664 1.4101,0.73662 1.9189,0.42218 0.5088,-0.31444 4.646,-6.89332 9.1937,-14.61973 4.5478,-7.72641 8.6608,-14.29033 9.14,-14.58648 0.4792,-0.29616 5.9895,2.79876 12.2452,6.87759 18.5976,12.12601 39.5964,34.00829 53.9487,56.21834 6.2068,9.605 15.8436,30.78233 19.6558,43.1947 6.8026,22.14876 9.0894,53.23468 5.5303,75.18008 -0.8401,5.18019 -1.1758,9.76647 -0.746,10.19173 0.7688,0.76061 60.6746,11.64168 64.9964,11.8057 1.2316,0.0467 2.6752,-0.77627 3.252,-1.85398 z M 8.5485949,505.98264 c 4e-4,-17.05 0.1371,-23.88442 0.3037,-15.18759 0.1667,8.69682 0.1664,22.64682 -7e-4,31 -0.1671,8.35317 -0.3034,1.23759 -0.303,-15.81241 z"
       style="fill:#092d78" />
  </g>
</svg>
