<svg id="Capa_1" data-name="Capa 1" xmlns="http://www.w3.org/2000/svg" viewBox="0 0 24 24"><title>44 world heritage site</title><g id="path10-6"><path d="M3.94,8.59V16c0,.2,0,.3,0,.4a.18.18,0,0,0,.16.1.21.21,0,0,0,.19-.11.77.77,0,0,0,0-.41V8.6h.35v7.54c0,.52-.19.77-.59.77a.55.55,0,0,1-.43-.18.84.84,0,0,1-.16-.58V8.59Z"/></g><g id="polygon12-7"><path d="M7.63,16.87l-.56-5.09v5.09h-.3V8.59h.4l.57,4.78V8.59H8v8.28Z"/></g><g id="polygon14-7"><path d="M11,12.32v.29h-.55v3.91h.63v.35H10V8.59h1V9h-.55v3.37Z"/></g><g id="polygon16-3"><path d="M21.84,7.42v.69H2.35V7.42Z"/></g><g id="polygon18-0"><path d="M21.84,17.48v.69H2.35v-.69Z"/></g><g id="polygon20-7"><path d="M22.91,18.88v.69H1.1v-.69Z"/></g><g id="polygon22-6"><path d="M24,20.22v.71H0v-.71Z"/></g><g id="polygon24-3"><path d="M12,3.07l9.79,2.79V6.6L11.91,3.91,2.31,6.64h0V5.91Z"/></g><g id="polygon26-6"><path d="M19.57,6.64h-2L12.08,5.16,6.61,6.6l-2.08,0h0L12.1,4.47Z"/></g><g id="path28-5"><path d="M13.78,11h.43V9.37a1.51,1.51,0,0,0-.12-.6.65.65,0,0,0-.54-.23.47.47,0,0,0-.44.21.81.81,0,0,0-.16.56c0,.22,0,1.21,0,1.55s.35,1.64.53,2.27a9.81,9.81,0,0,1,.26,1.15c0,.19,0,.83,0,1.14s0,.75,0,.75,0,.35-.18.35-.19-.35-.19-.35v-2H13v1.95s-.11.72.56.72a.64.64,0,0,0,.68-.64V14.45a6.09,6.09,0,0,0-.14-1c-.11-.4-.47-1.68-.55-2A6.86,6.86,0,0,1,13.42,10c0-.5,0-.81,0-.81s0-.23.18-.23.17.24.17.24V11h0Z"/></g><g id="path30-1"><path d="M17,11h.37V9.07a.55.55,0,0,0-.58-.6.58.58,0,0,0-.6.62v7.24a.57.57,0,0,0,.6.6.55.55,0,0,0,.58-.59V14.17H17v2.16c0,.11,0,.25-.21.25s-.21-.2-.21-.28V9.11c0-.08,0-.28.21-.28S17,9,17,9.08V11Z"/></g><g id="path32-3"><path d="M20.11,8.47a.62.62,0,0,0-.65.61v7.25a.61.61,0,0,0,.65.6.58.58,0,0,0,.62-.59V9.07a.59.59,0,0,0-.62-.6Zm.25,7.86a.22.22,0,0,1-.25.25.25.25,0,0,1-.26-.28V9.11a.25.25,0,0,1,.26-.28.22.22,0,0,1,.25.25v7.25Z"/></g><g id="path10-6-2" data-name="path10-6"><path d="M3.94,8.59V16c0,.2,0,.3,0,.4a.18.18,0,0,0,.16.1.21.21,0,0,0,.19-.11.77.77,0,0,0,0-.41V8.6h.35v7.54c0,.52-.19.77-.59.77a.55.55,0,0,1-.43-.18.84.84,0,0,1-.16-.58V8.59Z"/></g><g id="polygon12-7-2" data-name="polygon12-7"><path d="M7.63,16.87l-.56-5.09v5.09h-.3V8.59h.4l.57,4.78V8.59H8v8.28Z"/></g><g id="polygon14-7-2" data-name="polygon14-7"><path d="M11,12.32v.29h-.55v3.91h.63v.35H10V8.59h1V9h-.55v3.37Z"/></g><g id="polygon16-3-2" data-name="polygon16-3"><path d="M21.84,7.42v.69H2.35V7.42Z"/></g><g id="polygon18-0-2" data-name="polygon18-0"><path d="M21.84,17.48v.69H2.35v-.69Z"/></g><g id="polygon20-7-2" data-name="polygon20-7"><path d="M22.91,18.88v.69H1.1v-.69Z"/></g><g id="polygon22-6-2" data-name="polygon22-6"><path d="M24,20.22v.71H0v-.71Z"/></g><g id="polygon24-3-2" data-name="polygon24-3"><path d="M12,3.07l9.79,2.79V6.6L11.91,3.91,2.31,6.64h0V5.91Z"/></g><g id="polygon26-6-2" data-name="polygon26-6"><path d="M19.57,6.64h-2L12.08,5.16,6.61,6.6l-2.08,0h0L12.1,4.47Z"/></g><g id="path28-5-2" data-name="path28-5"><path d="M13.78,11h.43V9.37a1.51,1.51,0,0,0-.12-.6.65.65,0,0,0-.54-.23.47.47,0,0,0-.44.21.81.81,0,0,0-.16.56c0,.22,0,1.21,0,1.55s.35,1.64.53,2.27a9.81,9.81,0,0,1,.26,1.15c0,.19,0,.83,0,1.14s0,.75,0,.75,0,.35-.18.35-.19-.35-.19-.35v-2H13v1.95s-.11.72.56.72a.64.64,0,0,0,.68-.64V14.45a6.09,6.09,0,0,0-.14-1c-.11-.4-.47-1.68-.55-2A6.86,6.86,0,0,1,13.42,10c0-.5,0-.81,0-.81s0-.23.18-.23.17.24.17.24V11h0Z"/></g><g id="path30-1-2" data-name="path30-1"><path d="M17,11h.37V9.07a.55.55,0,0,0-.58-.6.58.58,0,0,0-.6.62v7.24a.57.57,0,0,0,.6.6.55.55,0,0,0,.58-.59V14.17H17v2.16c0,.11,0,.25-.21.25s-.21-.2-.21-.28V9.11c0-.08,0-.28.21-.28S17,9,17,9.08V11Z"/></g><g id="path32-3-2" data-name="path32-3"><path d="M20.11,8.47a.62.62,0,0,0-.65.61v7.25a.61.61,0,0,0,.65.6.58.58,0,0,0,.62-.59V9.07a.59.59,0,0,0-.62-.6Zm.25,7.86a.22.22,0,0,1-.25.25.25.25,0,0,1-.26-.28V9.11a.25.25,0,0,1,.26-.28.22.22,0,0,1,.25.25v7.25Z"/></g></svg>